<svg width="84" height="29" viewBox="0 0 84 29" fill="none" xmlns="http://www.w3.org/2000/svg">
<path d="M0 2.71875V26.085C0 27.4369 1.08871 28.5301 2.43504 28.5301H72.2943C73.8484 28.5301 75.3693 28.2213 76.7738 27.6371C78.1783 27.053 79.4748 26.1934 80.5718 25.0919C85.1427 20.5105 85.1427 13.0917 80.5718 8.51023C78.3778 6.30713 75.4026 5.07206 72.2943 5.07206H3.34922V2.71875H0Z" fill="url(#paint0_linear_3023_357)"/>
<path d="M0 2.50441C0 1.11993 1.26055 0 2.81886 0H4V5H2.81886C1.26055 5 0 3.88007 0 2.50441Z" fill="#AC2F00"/>
<path d="M14.5176 12.3984C12.0098 12.3984 10.4395 14.0801 10.4395 16.7754C10.4395 19.4648 12.0098 21.1465 14.5176 21.1465C17.0195 21.1465 18.5957 19.4648 18.5957 16.7754C18.5957 14.0801 17.0195 12.3984 14.5176 12.3984ZM14.5176 13.875C15.9004 13.875 16.7852 15 16.7852 16.7754C16.7852 18.5449 15.9004 19.6641 14.5176 19.6641C13.1289 19.6641 12.2441 18.5449 12.2441 16.7754C12.2441 15 13.1348 13.875 14.5176 13.875ZM25.5273 14.5488H23.8164V18.2227C23.8164 19.0957 23.3184 19.6699 22.5215 19.6699C21.7305 19.6699 21.2969 19.2012 21.2969 18.3281V14.5488H19.5859V18.6855C19.5859 20.1855 20.5059 21.0938 21.9004 21.0938C22.8789 21.0938 23.5117 20.6426 23.8398 19.834H23.875V21H25.5273V14.5488ZM27.1504 13.1133V14.5488H26.2773V15.8438H27.1504V19.2598C27.1504 20.5195 27.7363 21.0234 29.2305 21.0234C29.5762 21.0234 29.8809 20.9883 30.0566 20.9531V19.6875C29.9512 19.7051 29.7812 19.7168 29.6289 19.7168C29.1074 19.7168 28.8613 19.4766 28.8613 18.9785V15.8438H30.0566V14.5488H28.8613V13.1133H27.1504ZM36.5605 21.1113C38.5176 21.1113 39.7422 19.8633 39.7422 17.7715C39.7422 15.7031 38.5059 14.4375 36.5605 14.4375C34.6211 14.4375 33.3789 15.709 33.3789 17.7715C33.3789 19.8574 34.6035 21.1113 36.5605 21.1113ZM36.5605 19.793C35.6582 19.793 35.1133 19.0547 35.1133 17.7715C35.1133 16.5059 35.6582 15.75 36.5605 15.75C37.457 15.75 38.002 16.5 38.002 17.7715C38.002 19.0547 37.4629 19.793 36.5605 19.793ZM41.1191 21H42.8301V15.8438H44.002V14.5488H42.7949V14.0742C42.8008 13.623 43.0117 13.4297 43.5273 13.4297C43.7148 13.4297 43.873 13.4473 43.9961 13.4707V12.2812C43.7617 12.2461 43.498 12.2227 43.2051 12.2227C41.7109 12.2227 41.1191 12.7324 41.1191 13.9746V14.5488H40.2461V15.8438H41.1191V21ZM47.998 13.1133V14.5488H47.125V15.8438H47.998V19.2598C47.998 20.5195 48.584 21.0234 50.0781 21.0234C50.4238 21.0234 50.7285 20.9883 50.9043 20.9531V19.6875C50.7988 19.7051 50.6289 19.7168 50.4766 19.7168C49.9551 19.7168 49.709 19.4766 49.709 18.9785V15.8438H50.9043V14.5488H49.709V13.1133H47.998ZM51.918 21H53.6289V14.5488H51.918V21ZM52.7734 13.8457C53.2832 13.8457 53.6992 13.459 53.6992 12.9492C53.6992 12.4395 53.2832 12.0586 52.7734 12.0586C52.2695 12.0586 51.8535 12.4395 51.8535 12.9492C51.8535 13.459 52.2695 13.8457 52.7734 13.8457ZM54.8184 21H56.5293V17.1211C56.5293 16.3887 56.998 15.873 57.6719 15.873C58.334 15.873 58.7324 16.2891 58.7324 16.9805V21H60.3848V17.0977C60.3848 16.3652 60.8359 15.873 61.5098 15.873C62.207 15.873 62.5879 16.2891 62.5879 17.0449V21H64.2988V16.6172C64.2988 15.3164 63.4492 14.4551 62.1836 14.4551C61.2461 14.4551 60.4727 14.9648 60.1797 15.7734H60.1445C59.9277 14.9297 59.2715 14.4551 58.3457 14.4551C57.4844 14.4551 56.7812 14.9414 56.5059 15.7207H56.4707V14.5488H54.8184V21ZM68.3125 15.7148C69.1035 15.7148 69.6543 16.2656 69.6836 17.1094H66.9004C66.959 16.2832 67.5332 15.7148 68.3125 15.7148ZM69.707 19.0312C69.543 19.5293 69.0332 19.834 68.3887 19.834C67.4863 19.834 66.8828 19.207 66.8828 18.2754V18.1699H71.3359V17.6426C71.3359 15.6797 70.1523 14.4375 68.2949 14.4375C66.4023 14.4375 65.1953 15.75 65.1953 17.8008C65.1953 19.8516 66.3965 21.1113 68.3594 21.1113C69.9297 21.1113 71.0957 20.2793 71.2832 19.0312H69.707Z" fill="white"/>
<defs>
<linearGradient id="paint0_linear_3023_357" x1="-1.85965e-07" y1="28.5312" x2="88.5725" y2="2.71875" gradientUnits="userSpaceOnUse">
<stop stop-color="#FF3767"/>
<stop offset="1" stop-color="#E12626"/>
</linearGradient>
</defs>
</svg>
