<svg width="25" height="25" viewBox="0 0 25 25" fill="none" xmlns="http://www.w3.org/2000/svg">
<path d="M18.2944 5.83917L18.3179 6.01976L18.0473 6.07579L18.0113 6.46047H18.3354L18.7666 6.41895L18.9892 6.15433L18.7526 6.06228L18.6231 5.91321L18.4285 5.59806L18.3354 5.15234L17.9697 5.22688L17.8672 5.38396V5.56104L18.0433 5.6816L18.2944 5.83917Z" fill="white"/>
<path d="M17.983 5.98991L18.0025 5.74879L17.7879 5.65625L17.4877 5.72578L17.2651 6.08296V6.31457H17.5248L17.983 5.98991Z" fill="white"/>
<path d="M11.8049 7.01031L11.7388 7.1804H11.4192V7.34548H11.4952C11.4952 7.34548 11.4997 7.38049 11.5062 7.42651L11.7023 7.41001L11.8249 7.33397L11.8569 7.1804L12.0155 7.16689L12.078 7.03783L11.9324 7.00781L11.8049 7.01031Z" fill="white"/>
<path d="M10.9808 7.30925L10.9683 7.47083L11.1999 7.45132L11.2239 7.28924L11.0848 7.17969L10.9808 7.30925Z" fill="white"/>
<path d="M24.891 12.466C24.8875 12.1103 24.8695 11.7571 24.836 11.4095C24.7235 10.2504 24.4463 9.13938 24.0311 8.09788C24.0001 8.02034 23.9716 7.94181 23.9386 7.86527C23.3853 6.55814 22.6084 5.36807 21.6575 4.34107C21.595 4.27404 21.5314 4.20801 21.4679 4.14298C21.2883 3.95639 21.1037 3.7743 20.9126 3.59971C18.7506 1.63127 15.8792 0.429688 12.7317 0.429688C9.55765 0.429688 6.66576 1.65278 4.49772 3.65124C3.99247 4.11696 3.52825 4.62521 3.10705 5.16947C1.51828 7.22446 0.569824 9.7987 0.569824 12.5915C0.569824 19.2983 6.02595 24.7539 12.7322 24.7539C17.4495 24.7539 21.5449 22.0526 23.5609 18.1167C23.9921 17.2753 24.3278 16.3784 24.5539 15.4384C24.6114 15.1998 24.6609 14.9602 24.7039 14.7176C24.8265 14.0267 24.8935 13.3164 24.8935 12.5915C24.894 12.5495 24.8915 12.508 24.891 12.466ZM22.6019 7.60514L22.6725 7.52611C22.765 7.70569 22.8516 7.88828 22.9341 8.07337L22.819 8.06887L22.6019 8.09888V7.60514ZM20.8446 5.48312L20.8466 4.93986C21.0377 5.14246 21.2218 5.35106 21.3979 5.56716L21.1788 5.89332L20.4129 5.88632L20.3649 5.72674L20.8446 5.48312ZM6.17352 4.13297V4.11246H6.41714L6.43815 4.02892H6.83684V4.20301L6.72229 4.35608H6.17302L6.17352 4.13297ZM6.56271 4.67573C6.56271 4.67573 6.80633 4.63421 6.82734 4.63421C6.84835 4.63421 6.82734 4.87733 6.82734 4.87733L6.27807 4.91185L6.17352 4.78679L6.56271 4.67573ZM23.3768 9.50356H22.4869L21.9446 9.09986L21.3738 9.15539V9.50356H21.1933L20.9982 9.36449L20.0097 9.11387V8.47356L18.7571 8.57111L18.3689 8.77971H17.8717L17.628 8.7552L17.0243 9.09036V9.72116L15.7902 10.6116L15.8927 10.9918H16.1428L16.0773 11.3539L15.9012 11.4185L15.8917 12.3649L16.9582 13.5795H17.4224L17.4505 13.5055H18.2849L18.5255 13.2829H18.9987L19.2583 13.543L19.9637 13.616L19.8701 14.554L20.653 15.9362L20.2408 16.724L20.2688 17.0952L20.5935 17.4189V18.3113L21.0197 18.8846V19.6259H21.3879C19.3389 22.1416 16.2204 23.7529 12.7312 23.7529C6.57722 23.7534 1.57031 18.746 1.57031 12.5915C1.57031 11.0423 1.88846 9.56559 2.46124 8.22344V7.87527L2.86043 7.39054C2.99899 7.12891 3.14757 6.87379 3.30614 6.62517L3.32415 6.82777L2.86093 7.39054C2.71736 7.66167 2.58329 7.9388 2.46174 8.22344V8.85875L2.92546 9.08185V9.96478L3.37017 10.7236L3.73185 10.7792L3.77837 10.519L3.35166 9.86073L3.26812 9.22092H3.51824L3.6238 9.87924L4.24059 10.7792L4.08152 11.0698L4.4737 11.6696L5.44767 11.9107V11.7531L5.83736 11.8087L5.80034 12.0868L6.10649 12.1428L6.57922 12.2719L7.24704 13.0328L8.09995 13.0973L8.18349 13.7931L7.59971 14.2013L7.5722 14.8226L7.48866 15.2028L8.33306 16.2598L8.39759 16.622C8.39759 16.622 8.70374 16.705 8.74126 16.705C8.77828 16.705 9.42759 17.1968 9.42759 17.1968V19.1072L9.6592 19.1722L9.50163 20.0536L9.89132 20.5734L9.81928 21.4468L10.334 22.3517L10.9948 22.929L11.6592 22.941L11.7242 22.7274L11.236 22.3162L11.264 22.1121L11.3515 21.862L11.37 21.6069L11.0399 21.5969L10.8733 21.3878L11.1474 21.1242L11.1844 20.9251L10.8783 20.8375L10.8963 20.6524L11.3325 20.5864L11.9958 20.2677L12.2184 19.8595L12.9143 18.9691L12.7562 18.2728L12.9698 17.9021L13.6096 17.9216L14.0403 17.5805L14.1794 16.2368L14.6571 15.63L14.7407 15.2403L14.3049 15.1008L14.0173 14.629L13.0343 14.619L12.255 14.3219L12.2179 13.7661L11.9578 13.3114L11.253 13.3009L10.8458 12.6616L10.4841 12.485L10.4656 12.6801L9.80727 12.7191L9.56616 12.3834L8.87933 12.2439L8.31355 12.8977L7.42313 12.7466L7.35859 11.7431L6.70878 11.6321L6.96941 11.1398L6.89487 10.8572L6.04096 11.428L5.5037 11.3625L5.31211 10.9428L5.42916 10.51L5.72531 9.96428L6.40714 9.61911L7.72377 9.61861L7.72027 10.0203L8.1935 10.2404L8.15598 9.55408L8.49714 9.21092L9.18547 8.7587L9.2325 8.44055L9.91883 7.7262L10.6487 7.32201L10.5841 7.26898L11.0784 6.80376L11.2595 6.85178L11.3425 6.95583L11.5301 6.74773L11.5761 6.72722L11.3705 6.69821L11.1619 6.62867V6.42858L11.2725 6.33803H11.5161L11.6277 6.38706L11.7242 6.58215L11.8423 6.56414V6.54713L11.8763 6.55864L12.2184 6.50611L12.267 6.33903L12.4621 6.38806V6.56914L12.281 6.69371H12.2815L12.308 6.8923L12.9278 7.08339C12.9278 7.08339 12.9283 7.08589 12.9293 7.0909L13.0718 7.07889L13.0814 6.81026L12.5901 6.58665L12.5621 6.45759L12.9698 6.31852L12.9878 5.92834L12.5616 5.66871L12.5336 5.01089L11.9493 5.29803H11.7362L11.7922 4.79729L10.9968 4.6097L10.6677 4.85832V5.61669L10.0759 5.80428L9.83879 6.29851L9.58167 6.34003V5.70773L9.0254 5.63069L8.74726 5.44961L8.63521 5.03991L9.63019 4.45763L10.1169 4.30956L10.1659 4.63671L10.4371 4.62271L10.4581 4.45813L10.7417 4.41761L10.7467 4.36008L10.6247 4.30956L10.5967 4.13547L10.9453 4.10596L11.1559 3.88685L11.1674 3.87085L11.1699 3.87185L11.234 3.80581L11.9668 3.71327L12.291 3.9884L11.4411 4.44112L12.5226 4.69624L12.6626 4.33457H13.1354L13.3025 4.01942L12.9683 3.93588V3.53718L11.9203 3.07296L11.1969 3.1565L10.7887 3.3701L10.8168 3.88935L10.3901 3.82432L10.3245 3.53718L10.7332 3.16601L9.99136 3.12899L9.77826 3.19352L9.68572 3.44364L9.96385 3.49066L9.90832 3.7688L9.43559 3.79681L9.36156 3.9819L8.67573 4.00091C8.67573 4.00091 8.65672 3.61172 8.62921 3.61172C8.60169 3.61172 9.16697 3.60222 9.16697 3.60222L9.57566 3.20302L9.35255 3.09147L9.05591 3.37961L8.56367 3.3516L8.26703 2.9434H7.63623L6.97791 3.43514H7.5812L7.63623 3.61172L7.47965 3.75729L8.14747 3.7758L8.24952 4.01692L7.49766 3.9889L7.46114 3.80331L6.98842 3.70126L6.7378 3.5622L6.17502 3.5667C8.01741 2.22455 10.283 1.43017 12.7317 1.43017C15.554 1.43017 18.1328 2.48518 20.1002 4.21851L19.9677 4.45563L19.4529 4.65722L19.2358 4.89284L19.2858 5.16747L19.5515 5.20449L19.7115 5.60468L20.1698 5.42009L20.2453 5.95535H20.1072L19.7311 5.89982L19.3139 5.96986L18.9102 6.54013L18.3329 6.63067L18.2493 7.12491L18.493 7.18244L18.4224 7.50009L17.8491 7.38504L17.3234 7.50009L17.2118 7.79273L17.3029 8.40703L17.6115 8.5516L18.1293 8.5486L18.479 8.51708L18.5855 8.23895L19.1318 7.52911L19.4914 7.60264L19.8456 7.28249L19.9116 7.53261L20.7831 8.12039L20.6765 8.26346L20.2838 8.24245L20.4349 8.45655L20.6765 8.50958L20.9596 8.39152L20.9536 8.05036L21.0792 7.98733L20.9782 7.88028L20.3969 7.55612L20.2438 7.12541H20.727L20.8816 7.27849L21.2978 7.63716L21.3153 8.07087L21.7465 8.53009L21.9071 7.90079L22.2057 7.73771L22.2618 8.25246L22.5534 8.57261L23.1352 8.5626C23.2477 8.85224 23.3488 9.14689 23.4373 9.44753L23.3768 9.50356ZM7.20352 5.95535L7.49566 5.81628L7.75979 5.87931L7.66874 6.23398L7.38361 6.32453L7.20352 5.95535ZM8.75377 6.79025V7.01986H8.08645L7.83632 6.95033L7.89885 6.79025L8.21951 6.65769H8.65772V6.79025H8.75377ZM9.06091 7.11041V7.33301L8.89383 7.44057L8.68573 7.47908C8.68573 7.47908 8.68573 7.14542 8.68573 7.11041H9.06091ZM8.87282 7.01986V6.75523L9.10243 6.96434L8.87282 7.01986ZM8.97737 7.55512V7.77172L8.8178 7.9318H8.46313L8.51865 7.68868L8.68623 7.67418L8.72075 7.59064L8.97737 7.55512ZM8.09395 7.11041H8.46263L7.9899 7.77122L7.7948 7.66667L7.83683 7.38854L8.09395 7.11041ZM9.60368 7.47908V7.69519H9.24901L9.15196 7.55512V7.35402H9.17997L9.60368 7.47908ZM9.27602 7.18194L9.37707 7.07589L9.54765 7.18194L9.41108 7.29449L9.27602 7.18194ZM23.5579 10.0668L23.5929 10.0258C23.6074 10.0888 23.6229 10.1519 23.6369 10.2159L23.5579 10.0668Z" fill="white"/>
<path d="M2.46167 7.87536V8.22353C2.58323 7.93939 2.71729 7.66226 2.86086 7.39062L2.46167 7.87536Z" fill="white"/>
</svg>
