<svg width="23" height="21" viewBox="0 0 23 21" fill="none" xmlns="http://www.w3.org/2000/svg">
<path d="M6.30644 16.548C4.83997 16.548 3.53552 15.609 3.06185 14.2111L3.02981 14.1058C2.91811 13.7356 2.87131 13.4243 2.87131 13.1128V6.86719L0.649039 14.2853C0.363225 15.3764 1.01453 16.5075 2.10729 16.8089L16.272 20.6023C16.4488 20.6481 16.6256 20.6701 16.7997 20.6701C17.712 20.6701 18.5456 20.0646 18.7793 19.1723L19.6045 16.548H6.30644Z" fill="white"/>
<path d="M8.82553 6.92597C9.83595 6.92597 10.6575 6.10426 10.6575 5.09385C10.6575 4.08343 9.83595 3.26172 8.82553 3.26172C7.81512 3.26172 6.99341 4.08343 6.99341 5.09385C6.99341 6.10426 7.81512 6.92597 8.82553 6.92597Z" fill="white"/>
<path d="M20.2759 0.515625H6.53539C5.27322 0.515625 4.24536 1.54348 4.24536 2.80582V12.8821C4.24536 14.1444 5.27322 15.1723 6.53539 15.1723H20.2759C21.5383 15.1723 22.5661 14.1444 22.5661 12.8821V2.80582C22.5661 1.54348 21.5383 0.515625 20.2759 0.515625ZM6.53539 2.34775H20.2759C20.5289 2.34775 20.734 2.55289 20.734 2.80582V9.30876L17.8403 5.93216C17.5334 5.57221 17.089 5.37983 16.6118 5.36892C16.1373 5.37161 15.6922 5.58228 15.3881 5.94692L11.9858 10.0305L10.8774 8.92482C10.251 8.29835 9.23134 8.29835 8.6057 8.92482L6.07749 11.4522V2.80582C6.07749 2.55289 6.28262 2.34775 6.53539 2.34775Z" fill="white"/>
</svg>
