<svg width="20" height="20" viewBox="0 0 20 20" fill="none" xmlns="http://www.w3.org/2000/svg">
<path d="M10 0C8.62179 0 7.32372 0.260414 6.10577 0.78125C4.88781 1.30209 3.82613 2.01522 2.92067 2.92067C2.01522 3.82613 1.30209 4.88781 0.78125 6.10577C0.260414 7.32372 0 8.62179 0 10C0 11.3782 0.260414 12.6763 0.78125 13.8942C1.30209 15.1122 2.01522 16.1739 2.92067 17.0793C3.82613 17.9848 4.88781 18.6979 6.10577 19.2188C7.32372 19.7396 8.62179 20 10 20C11.3782 20 12.6763 19.7396 13.8942 19.2188C15.1122 18.6979 16.1739 17.9848 17.0793 17.0793C17.9848 16.1739 18.6979 15.1122 19.2188 13.8942C19.7396 12.6763 20 11.3782 20 10C20 8.62179 19.7396 7.32372 19.2188 6.10577C18.6979 4.88781 17.9848 3.82613 17.0793 2.92067C16.1739 2.01522 15.1122 1.30209 13.8942 0.78125C12.6763 0.260414 11.3782 0 10 0ZM9.92788 18.101C8.80608 18.101 7.75641 17.8886 6.77885 17.4639C5.80128 17.0393 4.94391 16.4623 4.20673 15.7332C3.46955 15.004 2.89263 14.1466 2.47596 13.1611C2.05929 12.1755 1.85096 11.1298 1.85096 10.024C1.85096 8.90224 2.05929 7.85257 2.47596 6.875C2.89263 5.89743 3.46955 5.04407 4.20673 4.3149C4.94391 3.58573 5.80128 3.00882 6.77885 2.58413C7.75641 2.15945 8.80608 1.94712 9.92788 1.94712C11.0337 1.94712 12.0793 2.15945 13.0649 2.58413C14.0505 3.00882 14.9078 3.58573 15.637 4.3149C16.3662 5.04407 16.9431 5.89743 17.3678 6.875C17.7925 7.85257 18.0048 8.90224 18.0048 10.024C18.0048 11.1298 17.7925 12.1755 17.3678 13.1611C16.9431 14.1466 16.3662 15.004 15.637 15.7332C14.9078 16.4623 14.0505 17.0393 13.0649 17.4639C12.0793 17.8886 11.0337 18.101 9.92788 18.101ZM14.1644 10.4808H9.95192V4.70582C9.95192 4.49748 9.87981 4.31719 9.73558 4.16495C9.59134 4.0127 9.41506 3.93658 9.20673 3.93658C8.9984 3.93658 8.81811 4.0127 8.66586 4.16495C8.51362 4.31719 8.4375 4.49748 8.4375 4.70582V11.25C8.4375 11.4583 8.51362 11.6346 8.66586 11.7788C8.81811 11.9231 8.9984 11.9952 9.20673 11.9952H14.1644C14.3727 11.9952 14.549 11.9231 14.6932 11.7788C14.8375 11.6346 14.9096 11.4583 14.9096 11.25C14.9096 11.0417 14.8375 10.8614 14.6932 10.7091C14.549 10.5569 14.3727 10.4808 14.1644 10.4808Z" fill="#272727"/>
</svg>
