<svg width="132" height="43" viewBox="0 0 132 43" fill="none" xmlns="http://www.w3.org/2000/svg">
<g filter="url(#filter0_d_2982_55)">
<path fill-rule="evenodd" clip-rule="evenodd" d="M5.21167 5.12695H1.00005V13.3769H1.00021V37.7457C1.00021 39.6259 2.37563 41.1576 4.06407 41.1576H111.47C112.362 41.1576 113.215 40.7668 113.851 40.059L125.177 27.4464C126.495 25.9887 126.495 23.612 125.177 22.1437L113.851 9.52053C113.215 8.82335 112.362 8.42194 111.47 8.42194H5.21167V5.12695Z" fill="url(#paint0_linear_2982_55)"/>
</g>
<path d="M30.0182 24.3027C30.0182 24.8622 29.9173 25.4066 29.7157 25.9359C29.4939 26.5105 29.1915 26.9692 28.8084 27.3119C28.3498 27.7101 27.8281 27.9823 27.2434 28.1285C26.7948 28.2444 26.2025 28.3024 25.4666 28.3024H24.1964V31.8937H21.3914V20.4316H25.1415C25.5044 20.4316 25.8093 20.4392 26.0563 20.4543C26.3991 20.4745 26.7116 20.5098 26.9939 20.5602C27.6895 20.6811 28.2489 20.918 28.6723 21.2709C29.5696 22.032 30.0182 23.0426 30.0182 24.3027ZM27.2131 24.3557C27.2131 23.8163 27.0115 23.4408 26.6083 23.2291C26.3159 23.0779 25.8724 23.0023 25.2776 23.0023H24.1964V25.7317H25.3834C25.948 25.7317 26.3739 25.646 26.6612 25.4747C27.0291 25.2579 27.2131 24.8849 27.2131 24.3557Z" fill="white"/>
<path d="M37.7755 31.8937L37.216 30.2379H33.239L32.6342 31.8937H29.4889L34.0858 20.4316H36.3919L40.951 31.8937H37.7755ZM35.2653 24.0003H35.2199L34.0405 27.9168H36.4448L35.2653 24.0003Z" fill="white"/>
<path d="M46.4401 27.7278V31.8937H43.5141V27.7278L40.0891 20.4316H43.2646L44.9657 25.0361L46.682 20.4316H49.8273L46.4401 27.7278Z" fill="white"/>
<path d="M51.0899 31.8937V20.4316H54.0159V29.3231H57.4107V31.8937H51.0899Z" fill="white"/>
<path d="M65.6746 31.8937L65.1151 30.2379H61.1381L60.5333 31.8937H57.388L61.985 20.4316H64.291L68.8501 31.8937H65.6746ZM63.1644 24.0003H63.1191L61.9396 27.9168H64.3439L63.1644 24.0003Z" fill="white"/>
<path d="M72.9027 23.0023V31.8937H69.9767V23.0023H67.716V20.4316H75.1482V23.0023H72.9027Z" fill="white"/>
<path d="M76.3277 31.8937V20.4316H82.6938V23.0023H79.1327V24.7866H82.5804V27.3573H79.1327V29.3231H82.6938V31.8937H76.3277Z" fill="white"/>
<path d="M89.9899 31.8937L87.3437 28.1965H87.3134V31.8937H84.5084V20.4316H88.13C88.5131 20.4316 88.8205 20.4392 89.0524 20.4543C89.3951 20.4694 89.7026 20.5022 89.9748 20.5526C90.6603 20.6685 91.2223 20.9029 91.6608 21.2558C92.6034 22.0118 93.0747 23.0552 93.0747 24.3859C93.0747 25.2982 92.8252 26.082 92.3262 26.7373C91.807 27.4329 91.1064 27.8512 90.2243 27.9924L93.3318 31.8937H89.9899ZM90.2697 24.5522C90.2697 24.023 90.0807 23.6248 89.7026 23.3576C89.375 23.1207 88.9339 23.0023 88.3795 23.0023H87.3134V26.1929H88.3492C89.6295 26.1929 90.2697 25.646 90.2697 24.5522Z" fill="white"/>
<path d="M1.00004 4.43772C1.00004 1.98492 3.09562 0 5.68515 0H7.646V8.86127H5.68515C3.09562 8.86127 1.00004 6.87635 1.00004 4.43772Z" fill="url(#paint1_linear_2982_55)"/>
<defs>
<filter id="filter0_d_2982_55" x="0" y="0.126953" width="131.166" height="42.0312" filterUnits="userSpaceOnUse" color-interpolation-filters="sRGB">
<feFlood flood-opacity="0" result="BackgroundImageFix"/>
<feColorMatrix in="SourceAlpha" type="matrix" values="0 0 0 0 0 0 0 0 0 0 0 0 0 0 0 0 0 0 127 0" result="hardAlpha"/>
<feOffset dx="2" dy="-2"/>
<feGaussianBlur stdDeviation="1.5"/>
<feComposite in2="hardAlpha" operator="out"/>
<feColorMatrix type="matrix" values="0 0 0 0 0 0 0 0 0 0 0 0 0 0 0 0 0 0 0.15 0"/>
<feBlend mode="normal" in2="BackgroundImageFix" result="effect1_dropShadow_2982_55"/>
<feBlend mode="normal" in="SourceGraphic" in2="effect1_dropShadow_2982_55" result="shape"/>
</filter>
<linearGradient id="paint0_linear_2982_55" x1="120.261" y1="8.42037" x2="2.09794" y2="44.7301" gradientUnits="userSpaceOnUse">
<stop stop-color="#3C67FE"/>
<stop offset="1" stop-color="#9153F5"/>
</linearGradient>
<linearGradient id="paint1_linear_2982_55" x1="33.5018" y1="22.7996" x2="29.9432" y2="2.37495" gradientUnits="userSpaceOnUse">
<stop stop-color="#9153F5"/>
<stop offset="1" stop-color="#3C67FE"/>
</linearGradient>
</defs>
</svg>
