<svg width="70" height="29" viewBox="0 0 70 29" fill="none" xmlns="http://www.w3.org/2000/svg">
<path d="M0 2.71875V26.085C0 27.4369 1.08871 28.5301 2.43504 28.5301H58.2943C59.8484 28.5301 61.3693 28.2213 62.7738 27.6371C64.1783 27.053 65.4748 26.1934 66.5718 25.0919C71.1427 20.5105 71.1427 13.0917 66.5718 8.51023C64.3778 6.30713 61.4025 5.07206 58.2943 5.07206H3.34922V2.71875H0Z" fill="url(#paint0_linear_3023_342)"/>
<path d="M0 2.50441C0 1.11993 1.26055 0 2.81886 0H4V5H2.81886C1.26055 5 0 3.88007 0 2.50441Z" fill="#0E247E"/>
<path d="M14.4727 21.1465C16.5469 21.1465 17.9941 19.9512 18.1934 18.0645H16.4707C16.2832 19.0664 15.5273 19.6816 14.4785 19.6816C13.125 19.6816 12.2754 18.5684 12.2754 16.7637C12.2754 14.9824 13.1367 13.8633 14.4727 13.8633C15.5039 13.8633 16.3008 14.543 16.4648 15.5801H18.1875C18.0527 13.6875 16.5059 12.3984 14.4727 12.3984C12.0234 12.3984 10.4707 14.0449 10.4707 16.7695C10.4707 19.5 12.0117 21.1465 14.4727 21.1465ZM19.2129 21H20.9238V12.1406H19.2129V21ZM24.5977 19.8281C23.9766 19.8281 23.5723 19.5293 23.5723 19.0547C23.5723 18.5801 23.9531 18.2988 24.668 18.252L26.0215 18.1582V18.6328C26.0215 19.3359 25.3887 19.8281 24.5977 19.8281ZM24.041 21.0762C24.8672 21.0762 25.6641 20.6777 26.0156 20.0039H26.0508V21H27.7031V16.5762C27.7031 15.2871 26.6191 14.4375 24.9609 14.4375C23.3496 14.4375 22.2363 15.2871 22.1895 16.5176H23.7539C23.8359 16.0488 24.2695 15.7207 24.8906 15.7207C25.5938 15.7207 26.0215 16.0605 26.0215 16.6816V17.1094L24.4102 17.209C22.7637 17.3086 21.8672 17.9707 21.8672 19.1426C21.8672 20.2969 22.7988 21.0762 24.041 21.0762ZM28.8867 21H30.5977V14.5488H28.8867V21ZM29.7422 13.8457C30.252 13.8457 30.668 13.459 30.668 12.9492C30.668 12.4395 30.252 12.0586 29.7422 12.0586C29.2383 12.0586 28.8223 12.4395 28.8223 12.9492C28.8223 13.459 29.2383 13.8457 29.7422 13.8457ZM31.7871 21H33.498V17.1211C33.498 16.3887 33.9668 15.873 34.6406 15.873C35.3027 15.873 35.7012 16.2891 35.7012 16.9805V21H37.3535V17.0977C37.3535 16.3652 37.8047 15.873 38.4785 15.873C39.1758 15.873 39.5566 16.2891 39.5566 17.0449V21H41.2676V16.6172C41.2676 15.3164 40.418 14.4551 39.1523 14.4551C38.2148 14.4551 37.4414 14.9648 37.1484 15.7734H37.1133C36.8965 14.9297 36.2402 14.4551 35.3145 14.4551C34.4531 14.4551 33.75 14.9414 33.4746 15.7207H33.4395V14.5488H31.7871V21ZM45.2812 15.7148C46.0723 15.7148 46.623 16.2656 46.6523 17.1094H43.8691C43.9277 16.2832 44.502 15.7148 45.2812 15.7148ZM46.6758 19.0312C46.5117 19.5293 46.002 19.834 45.3574 19.834C44.4551 19.834 43.8516 19.207 43.8516 18.2754V18.1699H48.3047V17.6426C48.3047 15.6797 47.1211 14.4375 45.2637 14.4375C43.3711 14.4375 42.1641 15.75 42.1641 17.8008C42.1641 19.8516 43.3652 21.1113 45.3281 21.1113C46.8984 21.1113 48.0645 20.2793 48.252 19.0312H46.6758ZM51.627 21.0762C52.5762 21.0762 53.3203 20.6074 53.6367 19.8984H53.666V21H55.3535V12.1406H53.6426V15.6504H53.6074C53.2852 14.9355 52.5645 14.4727 51.6328 14.4727C50.0273 14.4727 48.9844 15.7441 48.9844 17.7656C48.9844 19.7988 50.0215 21.0762 51.627 21.0762ZM52.1953 15.8555C53.0801 15.8555 53.6543 16.6113 53.6543 17.7773C53.6543 18.9434 53.0801 19.6934 52.1953 19.6934C51.3047 19.6934 50.7363 18.9551 50.7363 17.7715C50.7363 16.5996 51.3047 15.8555 52.1953 15.8555Z" fill="white"/>
<defs>
<linearGradient id="paint0_linear_3023_342" x1="2.33899e-05" y1="27.4752" x2="0.488944" y2="1.73658" gradientUnits="userSpaceOnUse">
<stop stop-color="#3C67FE"/>
<stop offset="1" stop-color="#9153F5"/>
</linearGradient>
</defs>
</svg>
