<svg width="25" height="25" viewBox="0 0 25 25" fill="none" xmlns="http://www.w3.org/2000/svg">
<path d="M16.3648 12.5573C16.383 12.539 16.4103 12.5207 16.4285 12.5024C16.4376 12.4932 16.4558 12.4749 16.4649 12.4657L16.4922 12.4383C16.5469 12.3925 16.5924 12.3467 16.6288 12.3101C16.6561 12.2826 16.6834 12.2459 16.7108 12.2185C16.7199 12.2093 16.729 12.2002 16.729 12.191L16.7381 12.1818C16.7745 12.136 16.8109 12.0903 16.8564 12.0445C16.8837 12.0078 16.9202 11.962 16.9475 11.9254C17.0385 11.7972 17.1296 11.669 17.2206 11.5316C17.2206 11.5316 17.4574 11.1836 17.6122 10.7349C17.6122 10.7257 17.6213 10.7074 17.6213 10.6982V10.7074C17.6304 10.6616 17.6486 10.625 17.6577 10.5792L17.685 10.5425C17.685 10.5334 17.6941 10.5151 17.6941 10.5059C17.8125 10.0755 17.8307 9.66335 17.7852 9.20545V9.21461C17.7761 9.17797 17.767 9.1505 17.7578 9.11387C17.7123 8.55522 17.2115 5.84442 14.2888 5.20335C14.2615 5.20335 13.9246 5.12092 13.6787 5.12092C12.923 5.12092 11.3023 5.09345 10.1277 5.11176C9.59052 5.11176 9.14437 5.12092 8.93495 5.13924C7.64202 5.16671 7.71486 6.17411 7.71486 6.17411C7.71486 6.17411 7.72396 8.91239 7.71486 9.09555C7.74217 9.61756 7.90607 10.0022 8.16101 10.3044C8.41596 10.5883 8.83479 10.8356 9.17168 10.9913L13.0414 12.5024C13.0505 12.5115 13.2326 12.5848 13.2326 12.5848C13.3418 12.6306 13.4602 12.6947 13.5877 12.7588C13.5239 12.7863 13.4693 12.8137 13.4147 12.8412C13.3601 12.8687 13.2963 12.887 13.2326 12.9053C13.0141 12.9878 12.6863 13.0977 12.3039 13.2259C12.3039 13.2259 12.3039 13.235 12.313 13.235C11.0018 13.6655 9.05332 14.2424 9.05332 14.2424C9.05332 14.2424 7.71486 14.7186 7.72396 16.0832C7.72396 16.248 7.72396 19.0046 7.72396 19.0046C7.72396 19.0046 7.67844 19.7465 8.57074 19.9937C8.57074 19.9937 8.57074 19.9937 8.56164 19.9937C8.70732 20.0395 8.88942 20.067 9.10795 20.0761L10.1368 20.067C10.1459 20.067 10.1459 20.067 10.155 20.067C10.1641 20.067 10.1641 20.067 10.1733 20.067C10.6194 20.067 13.6787 20.0761 13.6787 20.0761C13.6787 20.0761 16.6015 20.0304 17.594 17.2921C17.8216 16.8159 18.4954 14.1417 16.3648 12.5573ZM9.84547 9.40693C9.49947 9.24208 9.52679 8.8666 9.52679 8.8666L9.53589 6.85181C9.53589 6.77854 9.57231 6.73275 9.61784 6.68696C9.64515 6.65949 9.67247 6.65033 9.69978 6.64117C9.70889 6.64117 9.7271 6.64117 9.7362 6.64117H9.83636H13.615C13.615 6.64117 13.6696 6.64117 13.7789 6.64117C13.8699 6.64117 13.9792 6.65033 14.0885 6.65949L14.5346 6.76939C14.6257 6.79686 14.6985 6.82433 14.7531 6.85181L14.7805 6.86097C14.999 6.94339 15.2266 7.06245 15.4269 7.21813C15.436 7.22729 15.4542 7.23645 15.4633 7.24561C15.4725 7.25477 15.4816 7.26393 15.4998 7.27308C15.8458 7.55699 16.1189 7.93247 16.301 8.35374L16.3101 8.3629C16.5104 8.8666 16.5924 9.47103 16.4649 10.1762C16.4103 10.4876 16.2828 10.7806 16.1007 11.0462C16.0916 11.0462 16.0916 11.0371 16.0825 11.0371C16.0097 11.1378 15.9368 11.266 15.8458 11.3851C15.7274 11.5225 15.6181 11.6415 15.4907 11.7606C15.4451 11.8064 15.4087 11.8338 15.3632 11.8613C14.5619 11.3759 13.7243 11.0004 13.4602 10.8905C11.9397 10.2403 10.1186 9.53514 9.84547 9.40693ZM14.999 18.3544C14.0976 18.6108 13.6241 18.5559 12.659 18.5742L10.7378 18.5834H9.83636C9.83636 18.5834 9.48126 18.6108 9.50858 18.3727L9.49947 16.0832C9.49947 16.0832 9.52679 15.781 9.89099 15.6528C12.2219 14.7003 14.3616 13.7021 14.7167 13.5372C14.744 13.5281 14.7622 13.5189 14.7622 13.5189C15.4998 14.0959 16.1553 14.9201 16.1644 16.0283C16.1553 16.8525 15.8184 17.6676 14.999 18.3544Z" fill="white"/>
<path d="M22.7056 8.58308C23.2544 9.9348 23.5327 11.2832 23.5327 12.5909C23.5327 18.5115 18.7159 23.3283 12.7953 23.3283C10.346 23.3283 7.97396 22.4605 6.04166 20.8717C6.25627 20.5385 6.38141 20.1424 6.38141 19.7175C6.38141 18.5386 5.42231 17.5795 4.24344 17.5795C3.06456 17.5795 2.10547 18.5386 2.10547 19.7175C2.10547 20.8964 3.06456 21.8554 4.24344 21.8554C4.46598 21.8554 4.68058 21.8212 4.8825 21.7578C7.11354 23.6928 9.90492 24.7536 12.7953 24.7536C19.4827 24.7536 24.958 19.2773 24.958 12.5909C24.958 11.0986 24.6445 9.56977 24.0263 8.04688L22.7056 8.58308ZM3.53078 19.7175C3.53078 19.3245 3.85048 19.0048 4.24344 19.0048C4.6364 19.0048 4.95609 19.3245 4.95609 19.7175C4.95609 20.1104 4.6364 20.4301 4.24344 20.4301C3.85048 20.4301 3.53078 20.1104 3.53078 19.7175Z" fill="white"/>
<path d="M23.4853 5.46579C23.4853 4.28692 22.5262 3.32782 21.3474 3.32782C21.1248 3.32782 20.9102 3.36208 20.7083 3.42546C18.4773 1.4905 15.6859 0.429688 12.7955 0.429688C6.10811 0.429688 0.632812 5.90593 0.632812 12.5924C0.632812 14.0847 0.946286 15.6135 1.56454 17.1364L2.88519 16.6002C2.33639 15.2485 2.05813 13.9 2.05813 12.5924C2.05813 6.67175 6.87488 1.855 12.7955 1.855C15.2448 1.855 17.6168 2.72273 19.5491 4.31162C19.3345 4.64481 19.2094 5.04086 19.2094 5.46579C19.2094 6.64467 20.1685 7.60376 21.3474 7.60376C22.5262 7.60376 23.4853 6.64467 23.4853 5.46579ZM20.6347 5.46579C20.6347 5.07283 20.9544 4.75314 21.3474 4.75314C21.7403 4.75314 22.06 5.07283 22.06 5.46579C22.06 5.85875 21.7403 6.17845 21.3474 6.17845C20.9544 6.17845 20.6347 5.85875 20.6347 5.46579Z" fill="white"/>
</svg>
