<svg width="32" height="31" viewBox="0 0 32 31" fill="none" xmlns="http://www.w3.org/2000/svg">
<path d="M24.8898 8.01758C25.6513 10.4388 26.0334 12.9634 26.0226 15.5016C26.0334 18.0397 25.6513 20.5643 24.8898 22.9856C28.6033 21.2648 31.0056 18.5507 31.0056 15.5016C31.0056 12.4525 28.6033 9.73839 24.8898 8.01758Z" fill="white"/>
<path d="M0.788818 20.3711C1.55321 22.6626 2.84039 24.7448 4.54852 26.4529C6.25664 28.1611 8.33883 29.4482 10.6304 30.2126C8.83549 28.6273 7.45826 26.6246 6.6201 24.3813C4.3768 23.5432 2.37418 22.166 0.788818 20.3711Z" fill="white"/>
<path d="M7.45898 23.5388C10.0391 24.4635 12.7619 24.9268 15.5027 24.9075C18.2435 24.9268 20.9663 24.4635 23.5465 23.5388C24.4712 20.9586 24.9345 18.2358 24.9152 15.495C24.9345 12.7543 24.4712 10.0315 23.5465 7.45129C20.9663 6.5266 18.2435 6.06331 15.5027 6.08261C12.7619 6.06331 10.0391 6.5266 7.45898 7.45129C6.5343 10.0315 6.071 12.7543 6.0903 15.495C6.071 18.2358 6.5343 20.9586 7.45898 23.5388ZM18.8248 13.834C18.8248 13.2467 19.0581 12.6833 19.4734 12.268C19.8888 11.8527 20.4521 11.6193 21.0395 11.6193C21.6268 11.6193 22.1902 11.8527 22.6055 12.268C23.0208 12.6833 23.2542 13.2467 23.2542 13.834V17.1561C23.2542 17.7434 23.0208 18.3068 22.6055 18.7221C22.1902 19.1374 21.6268 19.3708 21.0395 19.3708C20.4521 19.3708 19.8888 19.1374 19.4734 18.7221C19.0581 18.3068 18.8248 17.7434 18.8248 17.1561V13.834ZM13.288 14.9414C13.2889 14.0606 13.6392 13.2161 14.262 12.5933C14.8848 11.9705 15.7293 11.6202 16.6101 11.6193C16.7569 11.6193 16.8978 11.6777 17.0016 11.7815C17.1054 11.8853 17.1638 12.0262 17.1638 12.173C17.1638 12.3199 17.1054 12.4607 17.0016 12.5645C16.8978 12.6684 16.7569 12.7267 16.6101 12.7267C16.0227 12.7267 15.4594 12.96 15.0441 13.3754C14.6287 13.7907 14.3954 14.354 14.3954 14.9414V15.2492C14.7306 15.0499 15.1128 14.9437 15.5027 14.9414C15.9408 14.9414 16.369 15.0713 16.7332 15.3146C17.0974 15.558 17.3812 15.9039 17.5488 16.3085C17.7165 16.7132 17.7603 17.1585 17.6749 17.5881C17.5894 18.0177 17.3785 18.4124 17.0688 18.7221C16.759 19.0318 16.3644 19.2427 15.9348 19.3282C15.5052 19.4137 15.0599 19.3698 14.6552 19.2022C14.2505 19.0346 13.9046 18.7507 13.6613 18.3865C13.4179 18.0223 13.288 17.5941 13.288 17.1561V14.9414ZM9.96601 16.0487C9.81917 16.0487 9.67834 15.9904 9.5745 15.8866C9.47067 15.7827 9.41234 15.6419 9.41234 15.495C9.41234 15.3482 9.47067 15.2074 9.5745 15.1035C9.67834 14.9997 9.81917 14.9414 9.96601 14.9414C10.185 14.9414 10.3991 14.8764 10.5812 14.7548C10.7633 14.6331 10.9053 14.4601 10.9891 14.2578C11.0729 14.0555 11.0948 13.8328 11.0521 13.618C11.0094 13.4032 10.9039 13.2059 10.749 13.051C10.5942 12.8962 10.3968 12.7907 10.182 12.748C9.96724 12.7052 9.74459 12.7272 9.54225 12.811C9.33991 12.8948 9.16696 13.0367 9.04529 13.2188C8.92361 13.4009 8.85867 13.615 8.85867 13.834C8.85867 13.9809 8.80033 14.1217 8.6965 14.2255C8.59266 14.3294 8.45184 14.3877 8.30499 14.3877C8.15815 14.3877 8.01732 14.3294 7.91349 14.2255C7.80965 14.1217 7.75132 13.9809 7.75132 13.834C7.7511 13.4638 7.84369 13.0994 8.02062 12.7742C8.19756 12.449 8.4532 12.1734 8.76417 11.9725C9.07514 11.7716 9.43151 11.6518 9.8007 11.6242C10.1699 11.5965 10.5401 11.6619 10.8775 11.8143C11.2149 11.9667 11.5088 12.2012 11.7322 12.4964C11.9555 12.7917 12.1013 13.1382 12.1562 13.5043C12.2111 13.8705 12.1733 14.2445 12.0464 14.5923C11.9194 14.94 11.7073 15.2504 11.4294 15.495C11.7073 15.7397 11.9194 16.0501 12.0464 16.3978C12.1733 16.7456 12.2111 17.1196 12.1562 17.4858C12.1013 17.8519 11.9555 18.1984 11.7322 18.4937C11.5088 18.7889 11.2149 19.0234 10.8775 19.1758C10.5401 19.3282 10.1699 19.3936 9.8007 19.3659C9.43151 19.3383 9.07514 19.2185 8.76417 19.0176C8.4532 18.8167 8.19756 18.5411 8.02062 18.2159C7.84369 17.8907 7.7511 17.5263 7.75132 17.1561C7.75132 17.0092 7.80965 16.8684 7.91349 16.7646C8.01732 16.6607 8.15815 16.6024 8.30499 16.6024C8.45184 16.6024 8.59266 16.6607 8.6965 16.7646C8.80033 16.8684 8.85867 17.0092 8.85867 17.1561C8.85867 17.3751 8.92361 17.5892 9.04529 17.7713C9.16696 17.9534 9.33991 18.0953 9.54225 18.1791C9.74459 18.2629 9.96724 18.2849 10.182 18.2421C10.3968 18.1994 10.5942 18.0939 10.749 17.9391C10.9039 17.7842 11.0094 17.5869 11.0521 17.3721C11.0948 17.1573 11.0729 16.9346 10.9891 16.7323C10.9053 16.53 10.7633 16.357 10.5812 16.2353C10.3991 16.1137 10.185 16.0487 9.96601 16.0487Z" fill="white"/>
<path d="M15.5028 0C12.4537 0 9.73961 2.40239 8.0188 6.11587C10.4401 5.35433 12.9646 4.9722 15.5028 4.98306C18.041 4.9722 20.5655 5.35433 22.9868 6.11587C21.266 2.40239 18.5519 0 15.5028 0Z" fill="white"/>
<path d="M0.788818 10.6286C2.37418 8.83378 4.3768 7.45655 6.6201 6.61839C7.45826 4.37509 8.83549 2.37247 10.6304 0.787109C8.33883 1.5515 6.25664 2.83868 4.54852 4.54681C2.84039 6.25493 1.55321 8.33713 0.788818 10.6286Z" fill="white"/>
<path d="M6.11587 22.9856C5.35433 20.5643 4.9722 18.0397 4.98306 15.5016C4.9722 12.9634 5.35433 10.4388 6.11587 8.01758C2.40239 9.73839 0 12.4525 0 15.5016C0 18.5507 2.40239 21.2648 6.11587 22.9856Z" fill="white"/>
<path d="M30.2168 10.6286C29.4524 8.33713 28.1652 6.25493 26.4571 4.54681C24.749 2.83868 22.6668 1.5515 20.3752 0.787109C22.1701 2.37247 23.5473 4.37509 24.3855 6.61839C26.6288 7.45655 28.6314 8.83378 30.2168 10.6286Z" fill="white"/>
<path d="M21.0397 18.2731C21.3334 18.2731 21.6151 18.1564 21.8227 17.9487C22.0304 17.7411 22.1471 17.4594 22.1471 17.1657V13.8437C22.1471 13.55 22.0304 13.2683 21.8227 13.0607C21.6151 12.853 21.3334 12.7363 21.0397 12.7363C20.746 12.7363 20.4644 12.853 20.2567 13.0607C20.049 13.2683 19.9324 13.55 19.9324 13.8437V17.1657C19.9324 17.4594 20.049 17.7411 20.2567 17.9487C20.4644 18.1564 20.746 18.2731 21.0397 18.2731Z" fill="white"/>
<path d="M15.5027 18.2655C16.1143 18.2655 16.6101 17.7697 16.6101 17.1581C16.6101 16.5466 16.1143 16.0508 15.5027 16.0508C14.8912 16.0508 14.3954 16.5466 14.3954 17.1581C14.3954 17.7697 14.8912 18.2655 15.5027 18.2655Z" fill="white"/>
<path d="M15.5028 31.0006C18.5519 31.0006 21.266 28.5982 22.9868 24.8848C20.5655 25.6463 18.041 26.0284 15.5028 26.0176C12.9646 26.0284 10.4401 25.6463 8.0188 24.8848C9.73961 28.5982 12.4537 31.0006 15.5028 31.0006Z" fill="white"/>
<path d="M24.3855 24.3813C23.5473 26.6246 22.1701 28.6273 20.3752 30.2126C22.6668 29.4482 24.749 28.1611 26.4571 26.4529C28.1652 24.7448 29.4524 22.6626 30.2168 20.3711C28.6314 22.166 26.6288 23.5432 24.3855 24.3813Z" fill="white"/>
</svg>
