<svg width="91" height="29" viewBox="0 0 91 29" fill="none" xmlns="http://www.w3.org/2000/svg">
<path d="M0 2.71875V26.085C0 27.4369 1.08871 28.5301 2.43504 28.5301H79.2943C80.8484 28.5301 82.3693 28.2213 83.7738 27.6371C85.1783 27.053 86.4748 26.1934 87.5718 25.0919C92.1427 20.5105 92.1427 13.0917 87.5718 8.51023C85.3778 6.30713 82.4026 5.07206 79.2943 5.07206H3.34922V2.71875H0Z" fill="url(#paint0_linear_3023_347)"/>
<path d="M0 2.50441C0 1.11993 1.26055 0 2.81886 0H4V5H2.81886C1.26055 5 0 3.88007 0 2.50441Z" fill="#007897"/>
<path d="M12.3965 21V15.4629H12.4492L16.4043 21H17.8691V12.5449H16.1758V18.0527H16.1289L12.1797 12.5449H10.7031V21H12.3965ZM22.0996 21.1113C24.0566 21.1113 25.2812 19.8633 25.2812 17.7715C25.2812 15.7031 24.0449 14.4375 22.0996 14.4375C20.1602 14.4375 18.918 15.709 18.918 17.7715C18.918 19.8574 20.1426 21.1113 22.0996 21.1113ZM22.0996 19.793C21.1973 19.793 20.6523 19.0547 20.6523 17.7715C20.6523 16.5059 21.1973 15.75 22.0996 15.75C22.9961 15.75 23.541 16.5 23.541 17.7715C23.541 19.0547 23.002 19.793 22.0996 19.793ZM26.6582 13.1133V14.5488H25.7852V15.8438H26.6582V19.2598C26.6582 20.5195 27.2441 21.0234 28.7383 21.0234C29.084 21.0234 29.3887 20.9883 29.5645 20.9531V19.6875C29.459 19.7051 29.2891 19.7168 29.1367 19.7168C28.6152 19.7168 28.3691 19.4766 28.3691 18.9785V15.8438H29.5645V14.5488H28.3691V13.1133H26.6582ZM38.957 16.9277C38.875 15.4922 37.7676 14.4375 36.0332 14.4375C34.1172 14.4375 32.8867 15.7266 32.8867 17.7715C32.8867 19.8457 34.1172 21.1113 36.0449 21.1113C37.7383 21.1113 38.8633 20.1562 38.9629 18.6562H37.3691C37.2578 19.3652 36.7832 19.7578 36.0625 19.7578C35.1777 19.7578 34.6211 19.0312 34.6211 17.7715C34.6211 16.5352 35.1777 15.7852 36.0566 15.7852C36.8008 15.7852 37.2695 16.2598 37.3633 16.9277H38.957ZM39.8652 21H41.5762V12.1406H39.8652V21ZM45.25 19.8281C44.6289 19.8281 44.2246 19.5293 44.2246 19.0547C44.2246 18.5801 44.6055 18.2988 45.3203 18.252L46.6738 18.1582V18.6328C46.6738 19.3359 46.041 19.8281 45.25 19.8281ZM44.6934 21.0762C45.5195 21.0762 46.3164 20.6777 46.668 20.0039H46.7031V21H48.3555V16.5762C48.3555 15.2871 47.2715 14.4375 45.6133 14.4375C44.002 14.4375 42.8887 15.2871 42.8418 16.5176H44.4062C44.4883 16.0488 44.9219 15.7207 45.543 15.7207C46.2461 15.7207 46.6738 16.0605 46.6738 16.6816V17.1094L45.0625 17.209C43.416 17.3086 42.5195 17.9707 42.5195 19.1426C42.5195 20.2969 43.4512 21.0762 44.6934 21.0762ZM49.5391 21H51.25V14.5488H49.5391V21ZM50.3945 13.8457C50.9043 13.8457 51.3203 13.459 51.3203 12.9492C51.3203 12.4395 50.9043 12.0586 50.3945 12.0586C49.8906 12.0586 49.4746 12.4395 49.4746 12.9492C49.4746 13.459 49.8906 13.8457 50.3945 13.8457ZM52.4395 21H54.1504V17.1211C54.1504 16.3887 54.6191 15.873 55.293 15.873C55.9551 15.873 56.3535 16.2891 56.3535 16.9805V21H58.0059V17.0977C58.0059 16.3652 58.457 15.873 59.1309 15.873C59.8281 15.873 60.209 16.2891 60.209 17.0449V21H61.9199V16.6172C61.9199 15.3164 61.0703 14.4551 59.8047 14.4551C58.8672 14.4551 58.0938 14.9648 57.8008 15.7734H57.7656C57.5488 14.9297 56.8926 14.4551 55.9668 14.4551C55.1055 14.4551 54.4023 14.9414 54.127 15.7207H54.0918V14.5488H52.4395V21ZM65.9336 15.7148C66.7246 15.7148 67.2754 16.2656 67.3047 17.1094H64.5215C64.5801 16.2832 65.1543 15.7148 65.9336 15.7148ZM67.3281 19.0312C67.1641 19.5293 66.6543 19.834 66.0098 19.834C65.1074 19.834 64.5039 19.207 64.5039 18.2754V18.1699H68.957V17.6426C68.957 15.6797 67.7734 14.4375 65.916 14.4375C64.0234 14.4375 62.8164 15.75 62.8164 17.8008C62.8164 19.8516 64.0176 21.1113 65.9805 21.1113C67.5508 21.1113 68.7168 20.2793 68.9043 19.0312H67.3281ZM72.2793 21.0762C73.2285 21.0762 73.9727 20.6074 74.2891 19.8984H74.3184V21H76.0059V12.1406H74.2949V15.6504H74.2598C73.9375 14.9355 73.2168 14.4727 72.2852 14.4727C70.6797 14.4727 69.6367 15.7441 69.6367 17.7656C69.6367 19.7988 70.6738 21.0762 72.2793 21.0762ZM72.8477 15.8555C73.7324 15.8555 74.3066 16.6113 74.3066 17.7773C74.3066 18.9434 73.7324 19.6934 72.8477 19.6934C71.957 19.6934 71.3887 18.9551 71.3887 17.7715C71.3887 16.5996 71.957 15.8555 72.8477 15.8555Z" fill="white"/>
<defs>
<linearGradient id="paint0_linear_3023_347" x1="2.33899e-05" y1="27.4752" x2="0.488944" y2="1.73658" gradientUnits="userSpaceOnUse">
<stop stop-color="#42E6DC"/>
<stop offset="1" stop-color="#15BFF4"/>
</linearGradient>
</defs>
</svg>
