<svg width="23" height="24" viewBox="0 0 23 24" fill="none" xmlns="http://www.w3.org/2000/svg">
<path opacity="0.8" d="M16.5 15H18C18.4063 15 18.7578 14.8516 19.0547 14.5547C19.3516 14.2578 19.5 13.9063 19.5 13.5V12C19.5 11.5937 19.3516 11.2422 19.0547 10.9453C18.7578 10.6484 18.4063 10.5 18 10.5H16.5C16.0937 10.5 15.7422 10.6484 15.4453 10.9453C15.1484 11.2422 15 11.5937 15 12V13.5C15 13.9063 15.1484 14.2578 15.4453 14.5547C15.7422 14.8516 16.0937 15 16.5 15ZM16.5 12H18V13.5H16.5V12ZM19.5 1.5H16.5V0.75C16.5 0.546874 16.4258 0.371094 16.2773 0.222656C16.1289 0.074218 15.9531 0 15.75 0C15.5469 0 15.3711 0.074218 15.2227 0.222656C15.0742 0.371094 15 0.546874 15 0.75V1.5H7.5V0.75C7.5 0.546874 7.42578 0.371094 7.27734 0.222656C7.12891 0.074218 6.95313 0 6.75 0C6.54687 0 6.37109 0.074218 6.22266 0.222656C6.07422 0.371094 6 0.546874 6 0.75V1.5H3C2.17187 1.5 1.46485 1.79297 0.878906 2.37891C0.292966 2.96485 0 3.67187 0 4.5V21C0 21.8281 0.292966 22.5352 0.878906 23.1211C1.46485 23.707 2.17187 24 3 24H19.5C20.3281 24 21.0352 23.707 21.6211 23.1211C22.207 22.5352 22.5 21.8281 22.5 21V4.5C22.5 3.67187 22.207 2.96485 21.6211 2.37891C21.0352 1.79297 20.3281 1.5 19.5 1.5ZM21 21C21 21.4063 20.8516 21.7578 20.5547 22.0547C20.2578 22.3516 19.9063 22.5 19.5 22.5H3C2.59375 22.5 2.24219 22.3516 1.94531 22.0547C1.64844 21.7578 1.5 21.4063 1.5 21V7.5H21V21ZM21 6H1.5V4.5C1.5 4.09375 1.64844 3.74219 1.94531 3.44531C2.24219 3.14844 2.59375 3 3 3H6V3.75C6 3.95313 6.07422 4.12891 6.22266 4.27734C6.37109 4.42578 6.54687 4.5 6.75 4.5C6.95313 4.5 7.12891 4.42578 7.27734 4.27734C7.42578 4.12891 7.5 3.95313 7.5 3.75V3H15V3.75C15 3.95313 15.0742 4.12891 15.2227 4.27734C15.3711 4.42578 15.5469 4.5 15.75 4.5C15.9531 4.5 16.1289 4.42578 16.2773 4.27734C16.4258 4.12891 16.5 3.95313 16.5 3.75V3H19.5C19.9063 3 20.2578 3.14844 20.5547 3.44531C20.8516 3.74219 21 4.09375 21 4.5V6ZM4.5 21H6C6.40625 21 6.75781 20.8516 7.05469 20.5547C7.35156 20.2578 7.5 19.9063 7.5 19.5V18C7.5 17.5937 7.35156 17.2422 7.05469 16.9453C6.75781 16.6484 6.40625 16.5 6 16.5H4.5C4.09375 16.5 3.74219 16.6484 3.44531 16.9453C3.14844 17.2422 3 17.5937 3 18V19.5C3 19.9063 3.14844 20.2578 3.44531 20.5547C3.74219 20.8516 4.09375 21 4.5 21ZM4.5 18H6V19.5H4.5V18ZM10.5 21H12C12.4063 21 12.7578 20.8516 13.0547 20.5547C13.3516 20.2578 13.5 19.9063 13.5 19.5V18C13.5 17.5937 13.3516 17.2422 13.0547 16.9453C12.7578 16.6484 12.4063 16.5 12 16.5H10.5C10.0937 16.5 9.74219 16.6484 9.44531 16.9453C9.14844 17.2422 9 17.5937 9 18V19.5C9 19.9063 9.14844 20.2578 9.44531 20.5547C9.74219 20.8516 10.0937 21 10.5 21ZM10.5 18H12V19.5H10.5V18ZM16.5 21H18C18.4063 21 18.7578 20.8516 19.0547 20.5547C19.3516 20.2578 19.5 19.9063 19.5 19.5V18C19.5 17.5937 19.3516 17.2422 19.0547 16.9453C18.7578 16.6484 18.4063 16.5 18 16.5H16.5C16.0937 16.5 15.7422 16.6484 15.4453 16.9453C15.1484 17.2422 15 17.5937 15 18V19.5C15 19.9063 15.1484 20.2578 15.4453 20.5547C15.7422 20.8516 16.0937 21 16.5 21ZM16.5 18H18V19.5H16.5V18ZM10.5 15H12C12.4063 15 12.7578 14.8516 13.0547 14.5547C13.3516 14.2578 13.5 13.9063 13.5 13.5V12C13.5 11.5937 13.3516 11.2422 13.0547 10.9453C12.7578 10.6484 12.4063 10.5 12 10.5H10.5C10.0937 10.5 9.74219 10.6484 9.44531 10.9453C9.14844 11.2422 9 11.5937 9 12V13.5C9 13.9063 9.14844 14.2578 9.44531 14.5547C9.74219 14.8516 10.0937 15 10.5 15ZM10.5 12H12V13.5H10.5V12ZM4.5 15H6C6.40625 15 6.75781 14.8516 7.05469 14.5547C7.35156 14.2578 7.5 13.9063 7.5 13.5V12C7.5 11.5937 7.35156 11.2422 7.05469 10.9453C6.75781 10.6484 6.40625 10.5 6 10.5H4.5C4.09375 10.5 3.74219 10.6484 3.44531 10.9453C3.14844 11.2422 3 11.5937 3 12V13.5C3 13.9063 3.14844 14.2578 3.44531 14.5547C3.74219 14.8516 4.09375 15 4.5 15ZM4.5 12H6V13.5H4.5V12Z" fill="#272727"/>
</svg>
