<svg width="27" height="25" viewBox="0 0 27 25" fill="none" xmlns="http://www.w3.org/2000/svg">
<path d="M7.15259 18.3636V24.7557L12.5011 22.0991V15.707L7.15259 18.3636Z" fill="white"/>
<path d="M7.15259 4.23438V10.6264L12.5011 13.283V6.89092L7.15259 4.23438Z" fill="white"/>
<path d="M6.38485 11.9062L1.17383 14.4946L6.3849 17.083L11.596 14.4946L6.38485 11.9062Z" fill="white"/>
<path d="M0.268799 15.707V22.0991L5.61723 24.7557V18.3636L0.268799 15.707Z" fill="white"/>
<path d="M13.2687 0.433594L8.05762 3.02197L13.2687 5.61035L18.4799 3.02197L13.2687 0.433594Z" fill="white"/>
<path d="M20.9204 18.3636V24.7557L26.2689 22.0991V15.707L20.9204 18.3636Z" fill="white"/>
<path d="M14.0366 6.89092V13.283L19.3851 10.6264V4.23438L14.0366 6.89092Z" fill="white"/>
<path d="M20.1528 11.9062L14.9417 14.4946L20.1527 17.083L25.3638 14.4946L20.1528 11.9062Z" fill="white"/>
<path d="M14.0366 15.707V22.0991L19.3851 24.7557V18.3636L14.0366 15.707Z" fill="white"/>
</svg>
