<svg width="121" height="49" viewBox="0 0 121 49" fill="none" xmlns="http://www.w3.org/2000/svg">
<g filter="url(#filter0_d_100_3879)">
<rect x="4.5" y="0.592041" width="112" height="40" rx="8" fill="url(#paint0_linear_100_3879)"/>
</g>
<path d="M44.4132 12.42V17.5722H46.1092C47.6552 17.5722 48.5514 16.6261 48.5514 14.9943C48.5514 13.3662 47.6517 12.42 46.1092 12.42H44.4132ZM44.9024 12.8628H46.0806C47.3482 12.8628 48.0551 13.6268 48.0551 14.9979C48.0551 16.3654 47.3482 17.1295 46.0806 17.1295H44.9024V12.8628Z" fill="white"/>
<path d="M51.2236 17.6151C52.2804 17.6151 52.9731 16.8474 52.9731 15.6477C52.9731 14.4481 52.2804 13.684 51.2236 13.684C50.1667 13.684 49.4776 14.4481 49.4776 15.6477C49.4776 16.8474 50.1667 17.6151 51.2236 17.6151ZM51.2236 17.1902C50.4452 17.1902 49.9596 16.6082 49.9596 15.6477C49.9596 14.6908 50.4452 14.1053 51.2236 14.1053C52.0055 14.1053 52.4911 14.6873 52.4911 15.6477C52.4911 16.6082 52.0055 17.1902 51.2236 17.1902Z" fill="white"/>
<path d="M58.773 13.7268H58.2982L57.427 17.0367H57.4163L56.4487 13.7268H55.9702L55.0062 17.0367H54.9955L54.1243 13.7268H53.6494L54.7455 17.5722H55.2418L56.2059 14.3695H56.2166L57.1806 17.5722H57.6769L58.773 13.7268Z" fill="white"/>
<path d="M59.6778 17.5722H60.1491V12.1951H59.6778V17.5722Z" fill="white"/>
<path d="M62.9534 17.6151C64.0103 17.6151 64.7029 16.8474 64.7029 15.6477C64.7029 14.4481 64.0103 13.684 62.9534 13.684C61.8965 13.684 61.2074 14.4481 61.2074 15.6477C61.2074 16.8474 61.8965 17.6151 62.9534 17.6151ZM62.9534 17.1902C62.175 17.1902 61.6894 16.6082 61.6894 15.6477C61.6894 14.6908 62.175 14.1053 62.9534 14.1053C63.7353 14.1053 64.2209 14.6873 64.2209 15.6477C64.2209 16.6082 63.7353 17.1902 62.9534 17.1902Z" fill="white"/>
<path d="M66.9431 17.2009C66.4075 17.2009 66.0433 16.9188 66.0433 16.5047C66.0433 16.0726 66.3861 15.8227 67.0323 15.7799L68.157 15.7013V16.1262C68.157 16.7332 67.6322 17.2009 66.9431 17.2009ZM66.8502 17.6151C67.4394 17.6151 67.9607 17.3045 68.1677 16.8367H68.1785V17.5722H68.6283V14.9515C68.6283 14.1767 68.0678 13.684 67.1859 13.684C66.3789 13.684 65.7719 14.1624 65.7327 14.8372H66.1861C66.2718 14.3802 66.6467 14.1053 67.1823 14.1053C67.8036 14.1053 68.157 14.4302 68.157 14.9908V15.3193L66.9752 15.3978C66.054 15.4621 65.5613 15.8441 65.5613 16.5011C65.5613 17.1652 66.0826 17.6151 66.8502 17.6151Z" fill="white"/>
<path d="M71.2755 17.6151C71.9003 17.6151 72.3895 17.2759 72.6109 16.7546H72.6216V17.5722H73.0715V12.1951H72.5966V14.5159H72.5859C72.3788 14.0196 71.8861 13.684 71.2648 13.684C70.3079 13.684 69.6295 14.473 69.6295 15.6477C69.6295 16.8224 70.3115 17.6151 71.2755 17.6151ZM71.3505 14.1053C72.0896 14.1053 72.6002 14.7373 72.6002 15.6477C72.6002 16.5654 72.0896 17.1902 71.3505 17.1902C70.615 17.1902 70.1115 16.5761 70.1115 15.6477C70.1115 14.723 70.615 14.1053 71.3505 14.1053Z" fill="white"/>
<path d="M77.8624 17.6151C78.9192 17.6151 79.6119 16.8474 79.6119 15.6477C79.6119 14.4481 78.9192 13.684 77.8624 13.684C76.8055 13.684 76.1164 14.4481 76.1164 15.6477C76.1164 16.8474 76.8055 17.6151 77.8624 17.6151ZM77.8624 17.1902C77.084 17.1902 76.5984 16.6082 76.5984 15.6477C76.5984 14.6908 77.084 14.1053 77.8624 14.1053C78.6443 14.1053 79.1299 14.6873 79.1299 15.6477C79.1299 16.6082 78.6443 17.1902 77.8624 17.1902Z" fill="white"/>
<path d="M80.6381 17.5722H81.1094V15.3121C81.1094 14.5944 81.545 14.1053 82.2305 14.1053C82.8839 14.1053 83.2553 14.4945 83.2553 15.1729V17.5722H83.7266V15.0979C83.7266 14.2267 83.2088 13.684 82.3626 13.684C81.7414 13.684 81.3093 13.966 81.0951 14.4445H81.0808V13.7268H80.6381V17.5722Z" fill="white"/>
<path d="M87.1178 12.8056V13.7268H86.568V14.1231H87.1178V16.6261C87.1178 17.3187 87.3749 17.5937 88.0104 17.5937C88.1104 17.5937 88.3175 17.583 88.3675 17.5687V17.1652C88.3389 17.1688 88.1533 17.1795 88.1033 17.1795C87.7462 17.1795 87.5891 17.0081 87.5891 16.6082V14.1231H88.3496V13.7268H87.5891V12.8056H87.1178Z" fill="white"/>
<path d="M89.4472 17.5722H89.9185V15.33C89.9185 14.598 90.372 14.1053 91.0682 14.1053C91.7252 14.1053 92.1037 14.5123 92.1037 15.1836V17.5722H92.575V15.1086C92.575 14.2481 92.043 13.684 91.2003 13.684C90.5826 13.684 90.1435 13.966 89.9292 14.4445H89.9185V12.1951H89.4472V17.5722Z" fill="white"/>
<path d="M95.2828 14.1017C95.9791 14.1017 96.4504 14.6159 96.4575 15.38H94.0653C94.1081 14.6159 94.5937 14.1017 95.2828 14.1017ZM96.4325 16.4832C96.3183 16.9046 95.9077 17.1973 95.3293 17.1973C94.5652 17.1973 94.0653 16.6618 94.0653 15.7906V15.7656H96.9503V15.5585C96.9503 14.4159 96.3004 13.684 95.29 13.684C94.2545 13.684 93.5761 14.4659 93.5761 15.6585C93.5761 16.8689 94.2545 17.6151 95.3185 17.6151C96.154 17.6151 96.786 17.1402 96.9003 16.4832H96.4325Z" fill="white"/>
<path d="M50.087 29.5852H51.3017L47.8826 20.3112H46.7386L43.3195 29.5852H44.5341L45.466 26.9309H49.1551L50.087 29.5852ZM47.2913 21.7187H47.3298L48.8145 25.9476H45.8067L47.2913 21.7187Z" fill="white"/>
<path d="M55.5498 22.5928C54.5922 22.5928 53.7118 23.0619 53.3069 23.7818H53.2812V22.657H52.2207V31.8989H53.339V28.4605H53.3647C53.8017 29.2189 54.5922 29.6495 55.5756 29.6495C57.3237 29.6495 58.5191 28.2356 58.5191 26.1211C58.5191 24.0067 57.3172 22.5928 55.5498 22.5928ZM55.3442 28.6533C54.1488 28.6533 53.3326 27.6315 53.3326 26.1211C53.3326 24.6173 54.1488 23.5889 55.3442 23.5889C56.5653 23.5889 57.3751 24.5915 57.3751 26.1211C57.3751 27.6572 56.5653 28.6533 55.3442 28.6533Z" fill="white"/>
<path d="M63.0308 22.5928C62.0732 22.5928 61.1927 23.0619 60.7878 23.7818H60.7621V22.657H59.7016V31.8989H60.8199V28.4605H60.8456C61.2826 29.2189 62.0732 29.6495 63.0565 29.6495C64.8046 29.6495 66 28.2356 66 26.1211C66 24.0067 64.7982 22.5928 63.0308 22.5928ZM62.8251 28.6533C61.6297 28.6533 60.8135 27.6315 60.8135 26.1211C60.8135 24.6173 61.6297 23.5889 62.8251 23.5889C64.0462 23.5889 64.856 24.5915 64.856 26.1211C64.856 27.6572 64.0462 28.6533 62.8251 28.6533Z" fill="white"/>
<path d="M70.0297 27.0338C70.1389 28.6726 71.5014 29.7395 73.468 29.7395C75.6018 29.7395 76.9386 28.6791 76.9386 26.9824C76.9386 25.652 76.1609 24.9129 74.2393 24.4309L73.2688 24.1738C72.0091 23.846 71.495 23.4283 71.495 22.7277C71.495 21.8215 72.3305 21.1981 73.5323 21.1981C74.7406 21.1981 75.5439 21.8087 75.6468 22.8049H76.8036C76.7522 21.2496 75.4154 20.157 73.5709 20.157C71.6428 20.157 70.2932 21.2367 70.2932 22.7792C70.2932 24.0388 71.0515 24.7908 72.7611 25.2278L73.9501 25.5363C75.1969 25.8576 75.7432 26.3397 75.7432 27.1237C75.7432 28.0364 74.8305 28.6983 73.5773 28.6983C72.2534 28.6983 71.3022 28.0364 71.1929 27.0338H70.0297Z" fill="white"/>
<path d="M78.5132 21.0953V22.657H77.5491V23.5825H78.5132V27.7857C78.5132 29.1161 79.0016 29.6367 80.2549 29.6367C80.5184 29.6367 80.8397 29.611 80.9747 29.5788V28.6341C80.8975 28.6469 80.6276 28.6662 80.4926 28.6662C79.9014 28.6662 79.6314 28.377 79.6314 27.7407V23.5825H80.9811V22.657H79.6314V21.0953H78.5132Z" fill="white"/>
<path d="M84.8822 29.6495C86.8296 29.6495 88.0764 28.2677 88.0764 26.1211C88.0764 23.9681 86.8296 22.5928 84.8822 22.5928C82.9349 22.5928 81.6881 23.9681 81.6881 26.1211C81.6881 28.2677 82.9349 29.6495 84.8822 29.6495ZM84.8822 28.6533C83.5968 28.6533 82.8256 27.7086 82.8256 26.1211C82.8256 24.5337 83.5904 23.5889 84.8822 23.5889C86.174 23.5889 86.9388 24.5273 86.9388 26.1211C86.9388 27.7086 86.174 28.6533 84.8822 28.6533Z" fill="white"/>
<path d="M89.2525 29.5852H90.3708V25.2985C90.3708 24.3216 90.9621 23.6661 91.8618 23.6661C92.0546 23.6661 92.3503 23.7046 92.4403 23.7432V22.6378C92.3439 22.6121 92.1446 22.5928 92.0097 22.5928C91.1999 22.5928 90.5379 23.0555 90.3322 23.7818H90.3065V22.657H89.2525V29.5852Z" fill="white"/>
<path d="M95.8722 23.5761C96.9648 23.5761 97.7103 24.3602 97.736 25.5363H93.9249C94.002 24.3666 94.7861 23.5761 95.8722 23.5761ZM97.7103 27.6058C97.5111 28.2549 96.8363 28.6662 95.9686 28.6662C94.7347 28.6662 93.9249 27.8114 93.9249 26.4939V26.4296H98.8993V25.9926C98.8993 23.8974 97.7425 22.5928 95.8915 22.5928C94.002 22.5928 92.768 24.0003 92.768 26.1469C92.768 28.2934 93.9956 29.6495 95.9429 29.6495C97.4211 29.6495 98.6229 28.7947 98.8157 27.6058H97.7103Z" fill="white"/>
<path fill-rule="evenodd" clip-rule="evenodd" d="M32.0578 11.7641C33.8471 10.4985 34.8481 8.81102 34.703 6.53491C34.6063 6.53491 34.5096 6.53491 34.4129 6.53982L34.4128 6.53982C34.3693 6.55944 34.3258 6.57906 34.2823 6.58887C32.0191 7.01074 30.2541 8.76197 29.814 11.0528C29.7615 11.3292 29.7513 11.6124 29.7411 11.8963C29.7363 12.0305 29.7315 12.1649 29.7221 12.2988C30.6168 12.3674 31.434 12.2007 32.0578 11.7641ZM19.6975 19.6529V21.0215C19.7175 21.1716 19.7366 21.3211 19.7556 21.4704C19.7962 21.7894 19.8367 22.1069 19.8861 22.4245C20.3794 25.51 21.6802 28.203 23.7451 30.5282C24.2915 31.1512 24.9347 31.6516 25.7713 31.8183C26.3661 31.9361 26.9222 31.7595 27.4686 31.5731C27.6794 31.5003 27.8891 31.4212 28.0987 31.3421C28.3412 31.2506 28.5837 31.1592 28.8275 31.0776C29.8914 30.7195 30.9407 30.7833 31.9853 31.1904C32.493 31.3867 33.0104 31.578 33.5376 31.7153C34.6836 32.0146 35.675 31.6908 36.5164 30.8569C37.2027 30.1744 37.733 29.368 38.2609 28.5653C38.2984 28.5083 38.3358 28.4513 38.3733 28.3944C38.9295 27.5506 39.6113 26.0741 39.8628 25.1862C37.9139 24.2395 36.7292 22.7237 36.5696 20.4672C36.41 18.2107 37.3385 16.5429 39.2003 15.346C38.8714 14.7965 38.4652 14.3403 37.9575 13.9921C36.1295 12.7412 34.171 12.5106 32.1013 13.2759C31.9607 13.3287 31.8191 13.379 31.6776 13.4292C31.386 13.5327 31.095 13.636 30.815 13.7615C30.1767 14.0509 29.5625 13.997 28.9242 13.7468C28.2278 13.4721 27.5267 13.1974 26.8061 13.0159C25.5198 12.6921 24.3012 12.9668 23.1599 13.6143C21.3949 14.615 20.4229 16.2044 19.949 18.142C19.8765 18.4361 19.8377 18.7393 19.7989 19.0424C19.7807 19.1841 19.7626 19.3258 19.741 19.4665C19.7348 19.5074 19.7246 19.5463 19.7143 19.5858C19.7085 19.6078 19.7027 19.63 19.6975 19.6529Z" fill="white"/>
<defs>
<filter id="filter0_d_100_3879" x="0.5" y="0.592041" width="120" height="48" filterUnits="userSpaceOnUse" color-interpolation-filters="sRGB">
<feFlood flood-opacity="0" result="BackgroundImageFix"/>
<feColorMatrix in="SourceAlpha" type="matrix" values="0 0 0 0 0 0 0 0 0 0 0 0 0 0 0 0 0 0 127 0" result="hardAlpha"/>
<feOffset dy="4"/>
<feGaussianBlur stdDeviation="2"/>
<feComposite in2="hardAlpha" operator="out"/>
<feColorMatrix type="matrix" values="0 0 0 0 0 0 0 0 0 0 0 0 0 0 0 0 0 0 1 0"/>
<feBlend mode="normal" in2="BackgroundImageFix" result="effect1_dropShadow_100_3879"/>
<feBlend mode="normal" in="SourceGraphic" in2="effect1_dropShadow_100_3879" result="shape"/>
</filter>
<linearGradient id="paint0_linear_100_3879" x1="110.683" y1="20.6214" x2="61.9763" y2="-36.2326" gradientUnits="userSpaceOnUse">
<stop offset="0.0107871" stop-color="#5010B8"/>
<stop offset="1" stop-color="#C10297"/>
</linearGradient>
</defs>
</svg>
